<?xml version="1.0" encoding="UTF-8" standalone="no"?>
<svg xmlns="http://www.w3.org/2000/svg" xmlns:xlink="http://www.w3.org/1999/xlink" contentScriptType="application/ecmascript" contentStyleType="text/css" height="901px" preserveAspectRatio="none" style="width:621px;height:901px;" version="1.1" viewBox="0 0 621 901" width="621px" zoomAndPan="magnify"><defs><filter height="300%" id="f1cmaolbcc4krq" width="300%" x="-1" y="-1"><feGaussianBlur result="blurOut" stdDeviation="2.0"/><feColorMatrix in="blurOut" result="blurOut2" type="matrix" values="0 0 0 0 0 0 0 0 0 0 0 0 0 0 0 0 0 0 .4 0"/><feOffset dx="4.0" dy="4.0" in="blurOut2" result="blurOut3"/><feBlend in="SourceGraphic" in2="blurOut3" mode="normal"/></filter></defs><g><text fill="#000000" font-family="sans-serif" font-size="18" lengthAdjust="spacingAndGlyphs" textLength="511" x="59" y="16.708">Class Diagram for Package 'edu.odu.cs.cs350.webanalysis'</text><!--class WebsiteAnalysis--><rect fill="#FEFECE" filter="url(#f1cmaolbcc4krq)" height="73.6094" id="WebsiteAnalysis" style="stroke: #A80036; stroke-width: 1.5;" width="161" x="396.5" y="28.9531"/><ellipse cx="424.55" cy="44.9531" fill="#ADD1B2" rx="11" ry="11" style="stroke: #A80036; stroke-width: 1.0;"/><path d="M426.8938,40.625 L427.0656,40.7031 C427.2844,40.3906 427.4875,40.2969 427.7844,40.2969 C428.0813,40.2969 428.3625,40.4375 428.5188,40.7031 C428.6125,40.8594 428.6281,40.9844 428.6281,41.4219 L428.6281,42.8438 C428.6281,43.2656 428.5969,43.4531 428.4875,43.6094 C428.3156,43.8281 428.05,43.9688 427.7844,43.9688 C427.5656,43.9688 427.3313,43.8594 427.1906,43.7188 C427.05,43.5938 427.0188,43.4688 426.9563,43.0625 C426.8625,42.6563 426.6906,42.4375 426.2063,42.1563 C425.7375,41.9063 425.1281,41.75 424.55,41.75 C422.8156,41.75 421.5656,43.0625 421.5656,44.8438 L421.5656,45.9375 C421.5656,47.6406 422.8625,48.7344 424.9094,48.7344 C425.675,48.7344 426.3625,48.6094 426.7844,48.3438 C426.9719,48.25 426.9719,48.25 427.425,47.7656 C427.6125,47.5781 427.8156,47.5 428.0344,47.5 C428.5031,47.5 428.8938,47.8906 428.8938,48.3438 C428.8938,48.7344 428.5656,49.1875 427.9875,49.5938 C427.2375,50.1406 426.0813,50.4375 424.8625,50.4375 C421.9719,50.4375 419.8625,48.5469 419.8625,45.9688 L419.8625,44.8438 C419.8625,42.125 421.8625,40.0469 424.4875,40.0469 C425.3625,40.0469 425.9563,40.1875 426.8938,40.625 Z "/><text fill="#000000" font-family="sans-serif" font-size="12" lengthAdjust="spacingAndGlyphs" textLength="100" x="441.45" y="49.1074">WebsiteAnalysis</text><line style="stroke: #A80036; stroke-width: 1.5;" x1="397.5" x2="556.5" y1="60.9531" y2="60.9531"/><rect fill="none" height="6" style="stroke: #C82930; stroke-width: 1.0;" width="6" x="404.5" y="69.8555"/><text fill="#000000" font-family="sans-serif" font-size="11" lengthAdjust="spacingAndGlyphs" textLength="92" x="416.5" y="75.1636">website Website</text><line style="stroke: #A80036; stroke-width: 1.5;" x1="397.5" x2="556.5" y1="81.7578" y2="81.7578"/><ellipse cx="407.5" cy="93.6602" fill="#84BE84" rx="3" ry="3" style="stroke: #038048; stroke-width: 1.0;"/><text fill="#000000" font-family="sans-serif" font-size="11" lengthAdjust="spacingAndGlyphs" textLength="135" x="416.5" y="95.9683">void main(String[] args)</text><!--class Website--><rect fill="#FEFECE" filter="url(#f1cmaolbcc4krq)" height="163.2422" id="Website" style="stroke: #A80036; stroke-width: 1.5;" width="267" x="343.5" y="224.9531"/><ellipse cx="447.75" cy="240.9531" fill="#ADD1B2" rx="11" ry="11" style="stroke: #A80036; stroke-width: 1.0;"/><path d="M450.0938,236.625 L450.2656,236.7031 C450.4844,236.3906 450.6875,236.2969 450.9844,236.2969 C451.2813,236.2969 451.5625,236.4375 451.7188,236.7031 C451.8125,236.8594 451.8281,236.9844 451.8281,237.4219 L451.8281,238.8438 C451.8281,239.2656 451.7969,239.4531 451.6875,239.6094 C451.5156,239.8281 451.25,239.9688 450.9844,239.9688 C450.7656,239.9688 450.5313,239.8594 450.3906,239.7188 C450.25,239.5938 450.2188,239.4688 450.1563,239.0625 C450.0625,238.6563 449.8906,238.4375 449.4063,238.1563 C448.9375,237.9063 448.3281,237.75 447.75,237.75 C446.0156,237.75 444.7656,239.0625 444.7656,240.8438 L444.7656,241.9375 C444.7656,243.6406 446.0625,244.7344 448.1094,244.7344 C448.875,244.7344 449.5625,244.6094 449.9844,244.3438 C450.1719,244.25 450.1719,244.25 450.625,243.7656 C450.8125,243.5781 451.0156,243.5 451.2344,243.5 C451.7031,243.5 452.0938,243.8906 452.0938,244.3438 C452.0938,244.7344 451.7656,245.1875 451.1875,245.5938 C450.4375,246.1406 449.2813,246.4375 448.0625,246.4375 C445.1719,246.4375 443.0625,244.5469 443.0625,241.9688 L443.0625,240.8438 C443.0625,238.125 445.0625,236.0469 447.6875,236.0469 C448.5625,236.0469 449.1563,236.1875 450.0938,236.625 Z "/><text fill="#000000" font-family="sans-serif" font-size="12" lengthAdjust="spacingAndGlyphs" textLength="50" x="468.25" y="245.1074">Website</text><line style="stroke: #A80036; stroke-width: 1.5;" x1="344.5" x2="609.5" y1="256.9531" y2="256.9531"/><rect fill="none" height="6" style="stroke: #C82930; stroke-width: 1.0;" width="6" x="351.5" y="265.8555"/><text fill="#000000" font-family="sans-serif" font-size="11" lengthAdjust="spacingAndGlyphs" textLength="75" x="363.5" y="271.1636">Page[] pages</text><rect fill="none" height="6" style="stroke: #C82930; stroke-width: 1.0;" width="6" x="351.5" y="278.6602"/><text fill="#000000" font-family="sans-serif" font-size="11" lengthAdjust="spacingAndGlyphs" textLength="112" x="363.5" y="283.9683">String absolutePath</text><rect fill="none" height="6" style="stroke: #C82930; stroke-width: 1.0;" width="6" x="351.5" y="291.4648"/><text fill="#000000" font-family="sans-serif" font-size="11" lengthAdjust="spacingAndGlyphs" textLength="105" x="363.5" y="296.7729">String relativePath</text><rect fill="none" height="6" style="stroke: #C82930; stroke-width: 1.0;" width="6" x="351.5" y="304.2695"/><text fill="#000000" font-family="sans-serif" font-size="11" lengthAdjust="spacingAndGlyphs" textLength="154" x="363.5" y="309.5776">AssetTracker AssetTracker</text><ellipse cx="354.5" cy="320.0742" fill="none" rx="3" ry="3" style="stroke: #038048; stroke-width: 1.0;"/><text fill="#000000" font-family="sans-serif" font-size="11" lengthAdjust="spacingAndGlyphs" textLength="241" x="363.5" y="322.3823">static final map&lt;int, String&gt; locationTuple</text><line style="stroke: #A80036; stroke-width: 1.5;" x1="344.5" x2="609.5" y1="328.9766" y2="328.9766"/><ellipse cx="354.5" cy="340.8789" fill="#84BE84" rx="3" ry="3" style="stroke: #038048; stroke-width: 1.0;"/><text fill="#000000" font-family="sans-serif" font-size="11" lengthAdjust="spacingAndGlyphs" textLength="115" x="363.5" y="343.187">Website(String path)</text><ellipse cx="354.5" cy="353.6836" fill="#84BE84" rx="3" ry="3" style="stroke: #038048; stroke-width: 1.0;"/><text fill="#000000" font-family="sans-serif" font-size="11" lengthAdjust="spacingAndGlyphs" textLength="95" x="363.5" y="355.9917">void exportText()</text><ellipse cx="354.5" cy="366.4883" fill="#84BE84" rx="3" ry="3" style="stroke: #038048; stroke-width: 1.0;"/><text fill="#000000" font-family="sans-serif" font-size="11" lengthAdjust="spacingAndGlyphs" textLength="100" x="363.5" y="368.7964">void exportExcel()</text><ellipse cx="354.5" cy="379.293" fill="#84BE84" rx="3" ry="3" style="stroke: #038048; stroke-width: 1.0;"/><text fill="#000000" font-family="sans-serif" font-size="11" lengthAdjust="spacingAndGlyphs" textLength="95" x="363.5" y="381.6011">void exportJson()</text><!--class AssetTracker--><rect fill="#FEFECE" filter="url(#f1cmaolbcc4krq)" height="252.875" id="AssetTracker" style="stroke: #A80036; stroke-width: 1.5;" width="302" x="6" y="179.9531"/><ellipse cx="111.75" cy="195.9531" fill="#ADD1B2" rx="11" ry="11" style="stroke: #A80036; stroke-width: 1.0;"/><path d="M114.0938,191.625 L114.2656,191.7031 C114.4844,191.3906 114.6875,191.2969 114.9844,191.2969 C115.2813,191.2969 115.5625,191.4375 115.7188,191.7031 C115.8125,191.8594 115.8281,191.9844 115.8281,192.4219 L115.8281,193.8438 C115.8281,194.2656 115.7969,194.4531 115.6875,194.6094 C115.5156,194.8281 115.25,194.9688 114.9844,194.9688 C114.7656,194.9688 114.5313,194.8594 114.3906,194.7188 C114.25,194.5938 114.2188,194.4688 114.1563,194.0625 C114.0625,193.6563 113.8906,193.4375 113.4063,193.1563 C112.9375,192.9063 112.3281,192.75 111.75,192.75 C110.0156,192.75 108.7656,194.0625 108.7656,195.8438 L108.7656,196.9375 C108.7656,198.6406 110.0625,199.7344 112.1094,199.7344 C112.875,199.7344 113.5625,199.6094 113.9844,199.3438 C114.1719,199.25 114.1719,199.25 114.625,198.7656 C114.8125,198.5781 115.0156,198.5 115.2344,198.5 C115.7031,198.5 116.0938,198.8906 116.0938,199.3438 C116.0938,199.7344 115.7656,200.1875 115.1875,200.5938 C114.4375,201.1406 113.2813,201.4375 112.0625,201.4375 C109.1719,201.4375 107.0625,199.5469 107.0625,196.9688 L107.0625,195.8438 C107.0625,193.125 109.0625,191.0469 111.6875,191.0469 C112.5625,191.0469 113.1563,191.1875 114.0938,191.625 Z "/><text fill="#000000" font-family="sans-serif" font-size="12" lengthAdjust="spacingAndGlyphs" textLength="82" x="132.25" y="200.1074">AssetTracker</text><line style="stroke: #A80036; stroke-width: 1.5;" x1="7" x2="307" y1="211.9531" y2="211.9531"/><rect fill="none" height="6" style="stroke: #C82930; stroke-width: 1.0;" width="6" x="14" y="220.8555"/><text fill="#000000" font-family="sans-serif" font-size="11" lengthAdjust="spacingAndGlyphs" textLength="276" x="26" y="226.1636">map&lt;String uri, String[] foundIn&gt; imageUsedOn</text><rect fill="none" height="6" style="stroke: #C82930; stroke-width: 1.0;" width="6" x="14" y="233.6602"/><text fill="#000000" font-family="sans-serif" font-size="11" lengthAdjust="spacingAndGlyphs" textLength="234" x="26" y="238.9683">map&lt;String uri, int size&gt; archiveCounter</text><rect fill="none" height="6" style="stroke: #C82930; stroke-width: 1.0;" width="6" x="14" y="246.4648"/><text fill="#000000" font-family="sans-serif" font-size="11" lengthAdjust="spacingAndGlyphs" textLength="223" x="26" y="251.7729">map&lt;String uri, int size&gt; videoCounter</text><rect fill="none" height="6" style="stroke: #C82930; stroke-width: 1.0;" width="6" x="14" y="259.2695"/><text fill="#000000" font-family="sans-serif" font-size="11" lengthAdjust="spacingAndGlyphs" textLength="224" x="26" y="264.5776">map&lt;String uri, int size&gt; audioCounter</text><rect fill="none" height="6" style="stroke: #C82930; stroke-width: 1.0;" width="6" x="14" y="272.0742"/><text fill="#000000" font-family="sans-serif" font-size="11" lengthAdjust="spacingAndGlyphs" textLength="272" x="26" y="277.3823">map&lt;String uri, int size&gt; uncategorizedCounter</text><line style="stroke: #A80036; stroke-width: 1.5;" x1="7" x2="307" y1="283.9766" y2="283.9766"/><ellipse cx="17" cy="295.8789" fill="#84BE84" rx="3" ry="3" style="stroke: #038048; stroke-width: 1.0;"/><text fill="#000000" font-family="sans-serif" font-size="11" lengthAdjust="spacingAndGlyphs" textLength="154" x="26" y="298.187">void addImage(String path)</text><ellipse cx="17" cy="308.6836" fill="#84BE84" rx="3" ry="3" style="stroke: #038048; stroke-width: 1.0;"/><text fill="#000000" font-family="sans-serif" font-size="11" lengthAdjust="spacingAndGlyphs" textLength="160" x="26" y="310.9917">void addArchive(String path)</text><ellipse cx="17" cy="321.4883" fill="#84BE84" rx="3" ry="3" style="stroke: #038048; stroke-width: 1.0;"/><text fill="#000000" font-family="sans-serif" font-size="11" lengthAdjust="spacingAndGlyphs" textLength="157" x="26" y="323.7964">void addVideos(String path)</text><ellipse cx="17" cy="334.293" fill="#84BE84" rx="3" ry="3" style="stroke: #038048; stroke-width: 1.0;"/><text fill="#000000" font-family="sans-serif" font-size="11" lengthAdjust="spacingAndGlyphs" textLength="150" x="26" y="336.6011">void addAudio(String path)</text><ellipse cx="17" cy="347.0977" fill="#84BE84" rx="3" ry="3" style="stroke: #038048; stroke-width: 1.0;"/><text fill="#000000" font-family="sans-serif" font-size="11" lengthAdjust="spacingAndGlyphs" textLength="199" x="26" y="349.4058">void addUncategorized(String path)</text><ellipse cx="17" cy="359.9023" fill="#84BE84" rx="3" ry="3" style="stroke: #038048; stroke-width: 1.0;"/><text fill="#000000" font-family="sans-serif" font-size="11" lengthAdjust="spacingAndGlyphs" textLength="229" x="26" y="362.2104">void addAssetTracker(AssetTracker rhs)</text><ellipse cx="17" cy="372.707" fill="#84BE84" rx="3" ry="3" style="stroke: #038048; stroke-width: 1.0;"/><text fill="#000000" font-family="sans-serif" font-size="11" lengthAdjust="spacingAndGlyphs" textLength="232" x="26" y="375.0151">map&lt;String, String[]&gt; getImageUsage();</text><ellipse cx="17" cy="385.5117" fill="#84BE84" rx="3" ry="3" style="stroke: #038048; stroke-width: 1.0;"/><text fill="#000000" font-family="sans-serif" font-size="11" lengthAdjust="spacingAndGlyphs" textLength="204" x="26" y="387.8198">map&lt;String, int&gt; getArchiveSizes();</text><ellipse cx="17" cy="398.3164" fill="#84BE84" rx="3" ry="3" style="stroke: #038048; stroke-width: 1.0;"/><text fill="#000000" font-family="sans-serif" font-size="11" lengthAdjust="spacingAndGlyphs" textLength="194" x="26" y="400.6245">map&lt;String, int&gt; getVideoSizes();</text><ellipse cx="17" cy="411.1211" fill="#84BE84" rx="3" ry="3" style="stroke: #038048; stroke-width: 1.0;"/><text fill="#000000" font-family="sans-serif" font-size="11" lengthAdjust="spacingAndGlyphs" textLength="194" x="26" y="413.4292">map&lt;String, int&gt; getAudioSizes();</text><ellipse cx="17" cy="423.9258" fill="#84BE84" rx="3" ry="3" style="stroke: #038048; stroke-width: 1.0;"/><text fill="#000000" font-family="sans-serif" font-size="11" lengthAdjust="spacingAndGlyphs" textLength="243" x="26" y="426.2339">map&lt;String, int&gt; getUncategorizedSizes();</text><!--class Page--><rect fill="#FEFECE" filter="url(#f1cmaolbcc4krq)" height="380.9219" id="Page" style="stroke: #A80036; stroke-width: 1.5;" width="229" x="234.5" y="509.9531"/><ellipse cx="328.75" cy="525.9531" fill="#ADD1B2" rx="11" ry="11" style="stroke: #A80036; stroke-width: 1.0;"/><path d="M331.0938,521.625 L331.2656,521.7031 C331.4844,521.3906 331.6875,521.2969 331.9844,521.2969 C332.2813,521.2969 332.5625,521.4375 332.7188,521.7031 C332.8125,521.8594 332.8281,521.9844 332.8281,522.4219 L332.8281,523.8438 C332.8281,524.2656 332.7969,524.4531 332.6875,524.6094 C332.5156,524.8281 332.25,524.9688 331.9844,524.9688 C331.7656,524.9688 331.5313,524.8594 331.3906,524.7188 C331.25,524.5938 331.2188,524.4688 331.1563,524.0625 C331.0625,523.6563 330.8906,523.4375 330.4063,523.1563 C329.9375,522.9063 329.3281,522.75 328.75,522.75 C327.0156,522.75 325.7656,524.0625 325.7656,525.8438 L325.7656,526.9375 C325.7656,528.6406 327.0625,529.7344 329.1094,529.7344 C329.875,529.7344 330.5625,529.6094 330.9844,529.3438 C331.1719,529.25 331.1719,529.25 331.625,528.7656 C331.8125,528.5781 332.0156,528.5 332.2344,528.5 C332.7031,528.5 333.0938,528.8906 333.0938,529.3438 C333.0938,529.7344 332.7656,530.1875 332.1875,530.5938 C331.4375,531.1406 330.2813,531.4375 329.0625,531.4375 C326.1719,531.4375 324.0625,529.5469 324.0625,526.9688 L324.0625,525.8438 C324.0625,523.125 326.0625,521.0469 328.6875,521.0469 C329.5625,521.0469 330.1563,521.1875 331.0938,521.625 Z "/><text fill="#000000" font-family="sans-serif" font-size="12" lengthAdjust="spacingAndGlyphs" textLength="32" x="349.25" y="530.1074">Page</text><line style="stroke: #A80036; stroke-width: 1.5;" x1="235.5" x2="462.5" y1="541.9531" y2="541.9531"/><rect fill="none" height="6" style="stroke: #C82930; stroke-width: 1.0;" width="6" x="242.5" y="550.8555"/><text fill="#000000" font-family="sans-serif" font-size="11" lengthAdjust="spacingAndGlyphs" textLength="179" x="254.5" y="556.1636">int numLocalImages // JSON, XL</text><rect fill="none" height="6" style="stroke: #C82930; stroke-width: 1.0;" width="6" x="242.5" y="563.6602"/><text fill="#000000" font-family="sans-serif" font-size="11" lengthAdjust="spacingAndGlyphs" textLength="186" x="254.5" y="568.9683">int numExternImages // JSON, XL</text><rect fill="none" height="6" style="stroke: #C82930; stroke-width: 1.0;" width="6" x="242.5" y="576.4648"/><text fill="#000000" font-family="sans-serif" font-size="11" lengthAdjust="spacingAndGlyphs" textLength="148" x="254.5" y="581.7729">int numScripts // JSON, XL</text><rect fill="none" height="6" style="stroke: #C82930; stroke-width: 1.0;" width="6" x="242.5" y="589.2695"/><text fill="#000000" font-family="sans-serif" font-size="11" lengthAdjust="spacingAndGlyphs" textLength="130" x="254.5" y="594.5776">int numCss // JSON, XL</text><rect fill="none" height="6" style="stroke: #C82930; stroke-width: 1.0;" width="6" x="242.5" y="602.0742"/><text fill="#000000" font-family="sans-serif" font-size="11" lengthAdjust="spacingAndGlyphs" textLength="132" x="254.5" y="607.3823">String[] images // JSON</text><rect fill="none" height="6" style="stroke: #C82930; stroke-width: 1.0;" width="6" x="242.5" y="614.8789"/><text fill="#000000" font-family="sans-serif" font-size="11" lengthAdjust="spacingAndGlyphs" textLength="129" x="254.5" y="620.187">String[] scripts // JSON</text><rect fill="none" height="6" style="stroke: #C82930; stroke-width: 1.0;" width="6" x="242.5" y="627.6836"/><text fill="#000000" font-family="sans-serif" font-size="11" lengthAdjust="spacingAndGlyphs" textLength="110" x="254.5" y="632.9917">String[] css // JSON</text><rect fill="none" height="6" style="stroke: #C82930; stroke-width: 1.0;" width="6" x="242.5" y="640.4883"/><text fill="#000000" font-family="sans-serif" font-size="11" lengthAdjust="spacingAndGlyphs" textLength="163" x="254.5" y="645.7964">int numIntraLinks // JSON, XL</text><rect fill="none" height="6" style="stroke: #C82930; stroke-width: 1.0;" width="6" x="242.5" y="653.293"/><text fill="#000000" font-family="sans-serif" font-size="11" lengthAdjust="spacingAndGlyphs" textLength="163" x="254.5" y="658.6011">int numInterLinks // JSON, XL</text><rect fill="none" height="6" style="stroke: #C82930; stroke-width: 1.0;" width="6" x="242.5" y="666.0977"/><text fill="#000000" font-family="sans-serif" font-size="11" lengthAdjust="spacingAndGlyphs" textLength="173" x="254.5" y="671.4058">int numExternLinks // JSON, XL</text><rect fill="none" height="6" style="stroke: #C82930; stroke-width: 1.0;" width="6" x="242.5" y="678.9023"/><text fill="#000000" font-family="sans-serif" font-size="11" lengthAdjust="spacingAndGlyphs" textLength="163" x="254.5" y="684.2104">double sizeOfImages // TEXT</text><rect fill="none" height="6" style="stroke: #C82930; stroke-width: 1.0;" width="6" x="242.5" y="691.707"/><text fill="#000000" font-family="sans-serif" font-size="11" lengthAdjust="spacingAndGlyphs" textLength="203" x="254.5" y="697.0151">AssetTracker assetTracking // JSON</text><line style="stroke: #A80036; stroke-width: 1.5;" x1="235.5" x2="462.5" y1="703.6094" y2="703.6094"/><ellipse cx="245.5" cy="715.5117" fill="#84BE84" rx="3" ry="3" style="stroke: #038048; stroke-width: 1.0;"/><text fill="#000000" font-family="sans-serif" font-size="11" lengthAdjust="spacingAndGlyphs" textLength="99" x="254.5" y="717.8198">Page(String path)</text><ellipse cx="245.5" cy="728.3164" fill="#84BE84" rx="3" ry="3" style="stroke: #038048; stroke-width: 1.0;"/><text fill="#000000" font-family="sans-serif" font-size="11" lengthAdjust="spacingAndGlyphs" textLength="117" x="254.5" y="730.6245">String getPagePath()</text><ellipse cx="245.5" cy="741.1211" fill="#84BE84" rx="3" ry="3" style="stroke: #038048; stroke-width: 1.0;"/><text fill="#000000" font-family="sans-serif" font-size="11" lengthAdjust="spacingAndGlyphs" textLength="122" x="254.5" y="743.4292">int numLocalImages()</text><ellipse cx="245.5" cy="753.9258" fill="#84BE84" rx="3" ry="3" style="stroke: #038048; stroke-width: 1.0;"/><text fill="#000000" font-family="sans-serif" font-size="11" lengthAdjust="spacingAndGlyphs" textLength="148" x="254.5" y="756.2339">int getNumExternImages()</text><ellipse cx="245.5" cy="766.7305" fill="#84BE84" rx="3" ry="3" style="stroke: #038048; stroke-width: 1.0;"/><text fill="#000000" font-family="sans-serif" font-size="11" lengthAdjust="spacingAndGlyphs" textLength="110" x="254.5" y="769.0386">int getNumScripts()</text><ellipse cx="245.5" cy="779.5352" fill="#84BE84" rx="3" ry="3" style="stroke: #038048; stroke-width: 1.0;"/><text fill="#000000" font-family="sans-serif" font-size="11" lengthAdjust="spacingAndGlyphs" textLength="92" x="254.5" y="781.8433">int getNumCss()</text><ellipse cx="245.5" cy="792.3398" fill="#84BE84" rx="3" ry="3" style="stroke: #038048; stroke-width: 1.0;"/><text fill="#000000" font-family="sans-serif" font-size="11" lengthAdjust="spacingAndGlyphs" textLength="114" x="254.5" y="794.6479">String[] getImages()</text><ellipse cx="245.5" cy="805.1445" fill="#84BE84" rx="3" ry="3" style="stroke: #038048; stroke-width: 1.0;"/><text fill="#000000" font-family="sans-serif" font-size="11" lengthAdjust="spacingAndGlyphs" textLength="112" x="254.5" y="807.4526">String[] getScripts()</text><ellipse cx="245.5" cy="817.9492" fill="#84BE84" rx="3" ry="3" style="stroke: #038048; stroke-width: 1.0;"/><text fill="#000000" font-family="sans-serif" font-size="11" lengthAdjust="spacingAndGlyphs" textLength="107" x="254.5" y="820.2573">String[] getStyles()</text><ellipse cx="245.5" cy="830.7539" fill="#84BE84" rx="3" ry="3" style="stroke: #038048; stroke-width: 1.0;"/><text fill="#000000" font-family="sans-serif" font-size="11" lengthAdjust="spacingAndGlyphs" textLength="125" x="254.5" y="833.062">int getNumIntraLinks()</text><ellipse cx="245.5" cy="843.5586" fill="#84BE84" rx="3" ry="3" style="stroke: #038048; stroke-width: 1.0;"/><text fill="#000000" font-family="sans-serif" font-size="11" lengthAdjust="spacingAndGlyphs" textLength="125" x="254.5" y="845.8667">int getNumInterLinks()</text><ellipse cx="245.5" cy="856.3633" fill="#84BE84" rx="3" ry="3" style="stroke: #038048; stroke-width: 1.0;"/><text fill="#000000" font-family="sans-serif" font-size="11" lengthAdjust="spacingAndGlyphs" textLength="135" x="254.5" y="858.6714">int getNumExternLinks()</text><ellipse cx="245.5" cy="869.168" fill="#84BE84" rx="3" ry="3" style="stroke: #038048; stroke-width: 1.0;"/><text fill="#000000" font-family="sans-serif" font-size="11" lengthAdjust="spacingAndGlyphs" textLength="146" x="254.5" y="871.4761">double getSizeOfImages()</text><ellipse cx="245.5" cy="881.9727" fill="#84BE84" rx="3" ry="3" style="stroke: #038048; stroke-width: 1.0;"/><text fill="#000000" font-family="sans-serif" font-size="11" lengthAdjust="spacingAndGlyphs" textLength="165" x="254.5" y="884.2808">AssetTracker getAssetsInfo()</text><!--link WebsiteAnalysis to Website--><path d="M477,116.3731 C477,147.6761 477,188.8921 477,224.8511 " fill="none" id="WebsiteAnalysis-Website" style="stroke: #A80036; stroke-width: 1.0;"/><polygon fill="#A80036" points="477,103.1761,473,109.1761,477,115.1761,481,109.1761,477,103.1761" style="stroke: #A80036; stroke-width: 1.0;"/><text fill="#000000" font-family="sans-serif" font-size="13" lengthAdjust="spacingAndGlyphs" textLength="80" x="478" y="146.02">Composition</text><text fill="#000000" font-family="sans-serif" font-size="13" lengthAdjust="spacingAndGlyphs" textLength="8" x="468.3375" y="122.6936">1</text><text fill="#000000" font-family="sans-serif" font-size="13" lengthAdjust="spacingAndGlyphs" textLength="8" x="468.6438" y="213.9775">1</text><!--link AssetTracker to Website--><path d="M308.25,306.4531 C315.528,306.4531 322.807,306.4531 330.085,306.4531 " fill="none" id="AssetTracker-Website" style="stroke: #A80036; stroke-width: 1.0;"/><polygon fill="#A80036" points="343.187,306.4531,337.187,302.4531,331.187,306.4531,337.187,310.4531,343.187,306.4531" style="stroke: #A80036; stroke-width: 1.0;"/><text fill="#000000" font-family="sans-serif" font-size="13" lengthAdjust="spacingAndGlyphs" textLength="8" x="315.7699" y="303.163">1</text><!--link AssetTracker to Page--><path d="M218.542,433.1021 C228.723,453.8881 239.5,475.8911 250.323,497.9871 " fill="none" id="AssetTracker-Page" style="stroke: #A80036; stroke-width: 1.0;"/><polygon fill="#A80036" points="256.159,509.9021,257.1121,502.7543,250.8807,499.1253,249.9276,506.2732,256.159,509.9021" style="stroke: #A80036; stroke-width: 1.0;"/><text fill="#000000" font-family="sans-serif" font-size="13" lengthAdjust="spacingAndGlyphs" textLength="8" x="213.8686" y="452.932">1</text><!--link Website to Page--><path d="M446.468,400.9571 C435.766,433.7311 423.327,471.8251 410.988,509.6141 " fill="none" id="Website-Page" style="stroke: #A80036; stroke-width: 1.0;"/><polygon fill="#A80036" points="450.634,388.2001,444.9689,392.6618,446.9086,399.6072,452.5736,395.1455,450.634,388.2001" style="stroke: #A80036; stroke-width: 1.0;"/><text fill="#000000" font-family="sans-serif" font-size="13" lengthAdjust="spacingAndGlyphs" textLength="78" x="425" y="476.02">Collection of</text><text fill="#000000" font-family="sans-serif" font-size="13" lengthAdjust="spacingAndGlyphs" textLength="8" x="439.9295" y="408.2107">1</text><text fill="#000000" font-family="sans-serif" font-size="13" lengthAdjust="spacingAndGlyphs" textLength="36" x="376.7063" y="498.9375">many</text><!--
@startuml
title Class Diagram for Package 'edu.odu.cs.cs350.webanalysis'


class WebsiteAnalysis {
- website Website
  +void main(String[] args)
}

class Website {
    - Page[] pages
    - String absolutePath
    - String relativePath
    - AssetTracker AssetTracker 
    + static final map<int, String> locationTuple
    + Website(String path)
    + void exportText()
    + void exportExcel()
    + void exportJson()
}
WebsiteAnalysis "1" *-down- "1" Website: Composition

class AssetTracker{
    - map<String uri, String[] foundIn> imageUsedOn
    - map<String uri, int size> archiveCounter
    - map<String uri, int size> videoCounter
    - map<String uri, int size> audioCounter
    - map<String uri, int size> uncategorizedCounter
    + void addImage(String path)
    + void addArchive(String path)
    + void addVideos(String path)
    + void addAudio(String path)
    + void addUncategorized(String path)
    + void addAssetTracker(AssetTracker rhs)
    + map<String, String[]> getImageUsage();
    + map<String, int> getArchiveSizes();
    + map<String, int> getVideoSizes();
    + map<String, int> getAudioSizes();
    + map<String, int> getUncategorizedSizes();
}
Website *-left- "1" AssetTracker
Page *-up- "1" AssetTracker

class Page {
    - int numLocalImages // JSON, XL
    - int numExternImages // JSON, XL
    - int numScripts // JSON, XL
    - int numCss // JSON, XL
    - String[] images // JSON
    - String[] scripts // JSON
    - String[] css // JSON
    - int numIntraLinks // JSON, XL
    - int numInterLinks // JSON, XL
    - int numExternLinks // JSON, XL
    - double sizeOfImages // TEXT
    - AssetTracker assetTracking // JSON 
    + Page(String path)
    + String getPagePath()
    + int numLocalImages() 
    + int getNumExternImages() 
    + int getNumScripts()
    + int getNumCss()
    + String[] getImages()
    + String[] getScripts()
    + String[] getStyles()
    + int getNumIntraLinks()  
    + int getNumInterLinks() 
    + int getNumExternLinks()
    + double getSizeOfImages()
    + AssetTracker getAssetsInfo()
}
Website "1" *-down- "many" Page: Collection of
@enduml

PlantUML version 1.2019.07(Mon Jun 24 19:59:20 UTC 2019)
(GPL source distribution)
Java Runtime: Java(TM) SE Runtime Environment
JVM: Java HotSpot(TM) 64-Bit Server VM
Java Version: 1.7.0_25-b15
Operating System: Linux
Default Encoding: UTF-8
Language: en
Country: US
--></g></svg>